<?xml version="1.0" encoding="utf-8"?>
<!-- Svg Vector Icons : http://www.onlinewebfonts.com/icon -->
<!DOCTYPE svg PUBLIC "-//W3C//DTD SVG 1.1//EN" "http://www.w3.org/Graphics/SVG/1.1/DTD/svg11.dtd">
<svg version="1.1" xmlns="http://www.w3.org/2000/svg" xmlns:xlink="http://www.w3.org/1999/xlink" x="0px" y="0px" viewBox="0 0 1000 1000" enable-background="new 0 0 1000 1000" xml:space="preserve">
<metadata> Svg Vector Icons : http://www.onlinewebfonts.com/icon </metadata>
<g><g><path d="M820.9,546.1c2.5,4.6,2.1,10.2-0.8,14.6L529.6,983.9c-2.5,3.8-6.7,6-11.2,6.1c-0.1,0-0.3,0-0.4,0c-4.3,0-8.5-2-11.2-5.5L179.9,561.3c-3.3-4.2-3.9-10-1.5-14.8c2.4-4.8,7.3-7.9,12.7-7.9h617.3C813.7,538.5,818.4,541.4,820.9,546.1z M191.1,461.5h617.3c0.2,0,0.4,0,0.6,0c7.8,0,14.1-6.3,14.1-14.1c0-4.5-2.1-8.5-5.4-11.2l-325-420.7c-2.8-3.6-6.8-5.4-11.6-5.5c-4.5,0.1-8.7,2.4-11.3,6.2L179.4,439.3c-3,4.3-3.3,10-0.9,14.6C181.1,458.5,185.8,461.5,191.1,461.5z"/></g><g></g><g></g><g></g><g></g><g></g><g></g><g></g><g></g><g></g><g></g><g></g><g></g><g></g><g></g><g></g></g>
</svg>